<svg xmlns="http://www.w3.org/2000/svg" xmlns:xlink="http://www.w3.org/1999/xlink" viewBox="0 0 932 932"><defs><style>.cls-1{fill:none;}.cls-2{clip-path:url(#clip-path);}.cls-3{clip-path:url(#clip-path-2);}.cls-4{clip-path:url(#clip-path-3);}.cls-5{clip-path:url(#clip-path-4);}</style><clipPath id="clip-path" transform="translate(303.45 266)"><path class="cls-1" d="M162.45,23.85v117.3a23.75,23.75,0,0,1-23.76,23.75H127.87a23.79,23.79,0,0,1-18.22-8.51L58.32,95a2.36,2.36,0,0,0-4.17,1.52v44.61A23.75,23.75,0,0,1,30.39,164.9H23.76A23.75,23.75,0,0,1,0,141.15V23.85A23.75,23.75,0,0,1,23.76.1H34.57A23.76,23.76,0,0,1,52.79,8.61L104.13,70a2.36,2.36,0,0,0,4.17-1.52V23.85A23.75,23.75,0,0,1,132.06.1h6.63A23.75,23.75,0,0,1,162.45,23.85Z"/></clipPath><clipPath id="clip-path-2" transform="translate(303.45 266)"><path class="cls-1" d="M229.55.1h0A31.49,31.49,0,0,1,261,31.59v99a31.49,31.49,0,0,1-31.49,31.49h0a31.49,31.49,0,0,1-31.49-31.49v-99A31.49,31.49,0,0,1,229.55.1Z"/></clipPath><clipPath id="clip-path-3" transform="translate(303.45 266)"><path class="cls-1" d="M377.09,80.71a32,32,0,0,0,19.5,29.42A21,21,0,0,1,409,129.57v8.58a23.52,23.52,0,0,1-20.95,23.43c-1.32.12-2.66.25-4,.35L382,162H370.33l-2.1-.07c-45.93-3.24-78.77-35.66-78.77-80.83C289.46,33.47,326,0,375.89,0a116.89,116.89,0,0,1,11.82.6,26.93,26.93,0,0,1,2.83.47,23.72,23.72,0,0,1,13.29,8.26A23.47,23.47,0,0,1,409,24.09v7.77a21,21,0,0,1-12.43,19.43A31.94,31.94,0,0,0,377.09,80.71Z"/></clipPath><clipPath id="clip-path-4" transform="translate(303.45 266)"><path class="cls-1" d="M512.7,82.5,561.17,131a14.83,14.83,0,0,1-10.49,25.32h-97a14.83,14.83,0,0,1-14.83-14.83v-118A14.83,14.83,0,0,1,453.72,8.69h97A14.83,14.83,0,0,1,561.17,34Z"/></clipPath><image id="image" width="2000" height="2000" xlink:href="../Color.png"/></defs><g id="Camada_2" data-name="Camada 2"><g id="Camada_1-2" data-name="Camada 1"><g class="cls-2"><use transform="translate(0 0) scale(0.47)" xlink:href="#image"/></g><g class="cls-3"><use transform="translate(0 0) scale(0.47)" xlink:href="#image"/></g><g class="cls-4"><use transform="translate(0 0) scale(0.47)" xlink:href="#image"/></g><g class="cls-5"><use transform="translate(0 0) scale(0.47)" xlink:href="#image"/></g></g></g></svg>