<svg xmlns="http://www.w3.org/2000/svg" viewBox="0 0 582.85 818.91"><defs><style>.cls-1{fill:#222221;}</style></defs><g id="Camada_2" data-name="Camada 2"><g id="Camada_1-2" data-name="Camada 1"><path class="cls-1" d="M518.68,0H51.25A51.26,51.26,0,0,0,0,51.25V649.86a51.22,51.22,0,0,0,51.25,51.25H518.68A51.27,51.27,0,0,0,570,649.86V51.25A51.31,51.31,0,0,0,518.68,0ZM247.18,431.3c0,13.73-7.8,26.64-20.42,32a52.62,52.62,0,0,0,0,96.91c12.62,5.36,20.42,18.27,20.42,32v14.14a38.66,38.66,0,0,1-34.5,38.56c-2.15.24-4.36.41-6.57.59-.93,0-2.5.11-3.43.11h-19.2c-.93,0-2.5-.06-3.43-.11-75.69-5.3-129.73-58.7-129.73-133.11,0-78.41,60.21-133.56,142.29-133.56a192.43,192.43,0,0,1,19.49,1,38.08,38.08,0,0,1,4.66.75,38.71,38.71,0,0,1,30.42,37.93ZM247.3,331,154.45,220a4.29,4.29,0,0,0-7.56,2.74v80.74a43,43,0,0,1-43,43h-12a43,43,0,0,1-43-43V91.16a43,43,0,0,1,43-43h19.55a43.06,43.06,0,0,1,33,15.41l92.9,111.06a4.23,4.23,0,0,0,7.5-2.74V91.16a43,43,0,0,1,43-43h12.05a43,43,0,0,1,43,43V303.43a43,43,0,0,1-43,43H280.28A43,43,0,0,1,247.3,331Zm266.08,274.4c16.87,16.93,4.89,45.85-19,45.85H318.91a26.84,26.84,0,0,1-26.82-26.88V410.94a26.84,26.84,0,0,1,26.82-26.88H494.36c23.91,0,35.89,28.92,19,45.84l-87.72,87.73Zm7.91-321.11a57,57,0,1,1-114,0V105.18a57,57,0,1,1,114,0Z"/><path class="cls-1" d="M9.35,817.8a3.79,3.79,0,0,1-3.41-1.91,4.11,4.11,0,0,1-.24-4L28,758.59a4,4,0,0,1,3.89-2.78,3.86,3.86,0,0,1,3.89,2.78L58.16,812a4.19,4.19,0,0,1-.27,4,3.85,3.85,0,0,1-3.46,1.79,4.2,4.2,0,0,1-2.26-.68,3.87,3.87,0,0,1-1.55-1.86L30.94,766.37h2.22l-20,48.89a4,4,0,0,1-1.62,1.9A4.22,4.22,0,0,1,9.35,817.8Zm4.21-13.65,3.17-6.83H47.85L51,804.15Z"/><path class="cls-1" d="M71.74,817.8a4.06,4.06,0,0,1-4.13-4.13V759.94a3.94,3.94,0,0,1,1.19-3,4.08,4.08,0,0,1,2.94-1.15H86a21.74,21.74,0,0,1,10.56,2.5,18.4,18.4,0,0,1,7.18,6.87,19.58,19.58,0,0,1,2.58,10.16,17.64,17.64,0,0,1-9.76,16.19A22.75,22.75,0,0,1,86,793.91H75.86v19.76a4.07,4.07,0,0,1-1.15,2.94A4,4,0,0,1,71.74,817.8Zm4.12-31.51H86a14.15,14.15,0,0,0,6.43-1.39A10.69,10.69,0,0,0,96.81,781a10.36,10.36,0,0,0,1.59-5.67,12,12,0,0,0-1.59-6.2,11.08,11.08,0,0,0-4.36-4.2A13.22,13.22,0,0,0,86,763.43H75.86Zm28.81,31.51a4.27,4.27,0,0,1-2-.48,4,4,0,0,1-1.55-1.51l-14.29-23,8-2.31,13,21a4.17,4.17,0,0,1,.39,4.32A3.66,3.66,0,0,1,104.67,817.8Z"/><path class="cls-1" d="M114.83,763.43a3.81,3.81,0,1,1,0-7.62h42.46a3.81,3.81,0,1,1,0,7.62ZM136.1,817.8a4.06,4.06,0,0,1-4.13-4.13V755.81h8.26v57.86a4.06,4.06,0,0,1-4.13,4.13Z"/><path class="cls-1" d="M205.94,818.91a19.72,19.72,0,0,1-8.81-1.87,13.86,13.86,0,0,1-5.91-5.31,15.7,15.7,0,0,1-2.1-8.3,14.79,14.79,0,0,1,3.65-9.76,67.38,67.38,0,0,1,9.6-9.13L209,779.3q4.2-3.33,5.4-5.87a13.31,13.31,0,0,0,1.27-5.24,7.29,7.29,0,0,0-7.86-7.46,7.78,7.78,0,0,0-5.64,2.07,6.53,6.53,0,0,0-2.14,4.84,9.54,9.54,0,0,0,.91,4,14.17,14.17,0,0,0,3,4.05l36.11,36a4.51,4.51,0,0,1,1.43,2.39,2.92,2.92,0,0,1-1.11,2.38c-1.69,1.69-3.39,1.69-5.08,0L198.72,780.1a21.56,21.56,0,0,1-4.13-5.84,15.07,15.07,0,0,1-1.42-6.46,12.73,12.73,0,0,1,1.9-6.87,13.28,13.28,0,0,1,5.24-4.8,15.88,15.88,0,0,1,7.46-1.75,15.35,15.35,0,0,1,7.58,1.83,13.57,13.57,0,0,1,7.1,12.14,14.5,14.5,0,0,1-1.07,5.64,17.45,17.45,0,0,1-3.29,5,53,53,0,0,1-5.8,5.27l-6.27,5a49.74,49.74,0,0,0-4.84,4.37,20,20,0,0,0-3.37,4.56,10.53,10.53,0,0,0-1.23,5c0,3,.82,5.2,2.46,6.71a9.81,9.81,0,0,0,6.9,2.26,15.43,15.43,0,0,0,8.3-2.18,37.1,37.1,0,0,0,7.18-6L233,791.69a5.38,5.38,0,0,1,2.22-1.59,2.41,2.41,0,0,1,2.3.87,3.58,3.58,0,0,1,1.31,2.46,3.84,3.84,0,0,1-1.15,2.62L226.1,808.27a39.3,39.3,0,0,1-9,7.66A20.84,20.84,0,0,1,205.94,818.91Z"/><path class="cls-1" d="M278.88,817.8a4.06,4.06,0,0,1-4.13-4.13V759.94a4,4,0,0,1,1.19-3,4.12,4.12,0,0,1,2.94-1.15h14.37a33,33,0,0,1,12.42,2.26,28.56,28.56,0,0,1,16.07,16.23,36.19,36.19,0,0,1,0,25,28.45,28.45,0,0,1-16.07,16.28,33,33,0,0,1-12.42,2.26Zm4.13-7.31h10.24a22.5,22.5,0,0,0,11.78-3,21.88,21.88,0,0,0,8.06-8.41,27.22,27.22,0,0,0,0-24.57,21.66,21.66,0,0,0-8.06-8.33,22.77,22.77,0,0,0-11.78-3H283Z"/><path class="cls-1" d="M341,817.8a4.06,4.06,0,0,1-4.12-4.13V759.94a3.94,3.94,0,0,1,1.19-3,4.08,4.08,0,0,1,2.93-1.15H376.9a4.06,4.06,0,0,1,2.93,1.07A3.77,3.77,0,0,1,381,759.7a3.53,3.53,0,0,1-1.12,2.7,4.13,4.13,0,0,1-2.93,1H345.15v19.29h22.78a4,4,0,0,1,2.94,1.07,3.92,3.92,0,0,1,0,5.47,4.05,4.05,0,0,1-2.94,1.08H345.15v19.84H376.9a4.13,4.13,0,0,1,2.93,1,3.53,3.53,0,0,1,1.12,2.7,3.77,3.77,0,0,1-1.12,2.82,4.06,4.06,0,0,1-2.93,1.07Z"/><path class="cls-1" d="M412.14,818.59a29.48,29.48,0,0,1-9.69-1.59,24.91,24.91,0,0,1-8-4.44,17.48,17.48,0,0,1-5-6.59,3.12,3.12,0,0,1,0-3.09,4.34,4.34,0,0,1,5.63-1.39,4.76,4.76,0,0,1,2.1,2.26,10.29,10.29,0,0,0,3.14,3.65,18,18,0,0,0,5.28,2.7,20.36,20.36,0,0,0,6.51,1,20.12,20.12,0,0,0,7-1.19,12.6,12.6,0,0,0,5.2-3.45,8.21,8.21,0,0,0,2-5.6,10.49,10.49,0,0,0-3.29-7.54q-3.3-3.33-10.83-4.13-9.86-.94-15.48-5.79a15.18,15.18,0,0,1-5.64-12,13.7,13.7,0,0,1,2.94-8.89,18.22,18.22,0,0,1,8-5.56,31.54,31.54,0,0,1,11.23-1.9,24.12,24.12,0,0,1,8.45,1.35,20,20,0,0,1,6.31,3.73,24.08,24.08,0,0,1,4.68,5.63,5,5,0,0,1,.92,3.3,3.3,3.3,0,0,1-1.55,2.42,3.74,3.74,0,0,1-3.26.39,4.49,4.49,0,0,1-2.62-2.06,14.05,14.05,0,0,0-3.09-3.89,13.8,13.8,0,0,0-4.29-2.5,16.6,16.6,0,0,0-5.79-.91,19.07,19.07,0,0,0-9.84,2.18,7.46,7.46,0,0,0-4,6.94,9.2,9.2,0,0,0,1.23,4.57A9.93,9.93,0,0,0,405,780a29.47,29.47,0,0,0,9.49,2.22q9.44.94,14.72,5.75a16.31,16.31,0,0,1,5.28,12.66,15.76,15.76,0,0,1-1.87,7.86,17.18,17.18,0,0,1-5,5.6,22.39,22.39,0,0,1-7.14,3.37A30.93,30.93,0,0,1,412.14,818.59Z"/><path class="cls-1" d="M451.18,817.8a4.06,4.06,0,0,1-4.12-4.13V759.94a3.94,3.94,0,0,1,1.19-3,4.37,4.37,0,0,1,5.91,0,4,4,0,0,1,1.15,3v53.73a4.07,4.07,0,0,1-1.15,2.94A4,4,0,0,1,451.18,817.8Z"/><path class="cls-1" d="M499,818.59a29.94,29.94,0,0,1-21.79-9.17,31.34,31.34,0,0,1-6.5-10.12,33.15,33.15,0,0,1-2.34-12.54,32.68,32.68,0,0,1,2.34-12.42,31.7,31.7,0,0,1,6.5-10.08,30.55,30.55,0,0,1,9.73-6.78A29.42,29.42,0,0,1,499,755a31.32,31.32,0,0,1,10.52,1.58,30.57,30.57,0,0,1,8.85,5.24,4.63,4.63,0,0,1,1,1,2.83,2.83,0,0,1,.47,1,5.44,5.44,0,0,1,.12,1.23,3.38,3.38,0,0,1-1.07,2.54,3.91,3.91,0,0,1-2.62,1.11,4.13,4.13,0,0,1-2.89-1,23.46,23.46,0,0,0-6.08-3.89,21.25,21.25,0,0,0-8.29-1.35,20.77,20.77,0,0,0-8.81,1.9,23.32,23.32,0,0,0-7.26,5.24,24.06,24.06,0,0,0-4.88,7.74,26.36,26.36,0,0,0,0,18.89,24.16,24.16,0,0,0,4.88,7.74,22.88,22.88,0,0,0,7.26,5.2,21.8,21.8,0,0,0,16.47.47,29.22,29.22,0,0,0,6.94-3.85,4.18,4.18,0,0,1,2.82-.91,3.55,3.55,0,0,1,2.34,1.11,3.78,3.78,0,0,1,1,2.74,4.61,4.61,0,0,1-.28,1.55,3.66,3.66,0,0,1-1,1.39,29.25,29.25,0,0,1-9.13,5.19A31.21,31.21,0,0,1,499,818.59Zm20.72-9.84-7.94-1.59V793H500.79a4.31,4.31,0,0,1-2.94-1,3.48,3.48,0,0,1,0-5.24,4.36,4.36,0,0,1,2.94-1h14.84a3.92,3.92,0,0,1,2.93,1.15,4.08,4.08,0,0,1,1.12,3Z"/><path class="cls-1" d="M536.9,817.8a3.88,3.88,0,0,1-2.9-1.19,4.07,4.07,0,0,1-1.15-2.94V759.94a4,4,0,0,1,1.15-3,4.15,4.15,0,0,1,6.07.36l34.61,46V759.94a3.94,3.94,0,0,1,1.19-3,4.08,4.08,0,0,1,2.93-1.15,3.92,3.92,0,0,1,2.94,1.15,4.12,4.12,0,0,1,1.11,3v53.73a4.17,4.17,0,0,1-1.11,2.94,3.84,3.84,0,0,1-2.94,1.19,4.64,4.64,0,0,1-1.7-.36,3.43,3.43,0,0,1-1.47-1.07l-34.6-46v43.34a4.08,4.08,0,0,1-1.16,2.94A3.94,3.94,0,0,1,536.9,817.8Z"/></g></g></svg>